<svg width="180" height="81" viewBox="0 0 180 81" fill="none" xmlns="http://www.w3.org/2000/svg">
<g clip-path="url(#clip0_210_324)">
<path fill-rule="evenodd" clip-rule="evenodd" d="M169.203 50.6971C169.938 50.8862 170.675 50.969 171.463 50.969H171.488C172.278 50.969 173.015 50.8862 173.75 50.6971C174.469 50.5273 175.056 50.2632 175.434 49.9399C175.83 49.6306 176.039 49.2797 176.037 48.9225C176.037 48.5557 175.853 48.2128 175.434 47.8812C175.038 47.5501 174.46 47.3018 173.725 47.124C172.988 46.9467 172.253 46.8525 171.488 46.8525H171.463C170.681 46.8632 169.916 46.9561 169.228 47.124C168.493 47.3018 167.941 47.5501 167.52 47.8812C167.116 48.198 166.908 48.5575 166.916 48.9225C166.916 49.2654 167.1 49.6088 167.52 49.9399C167.897 50.2634 168.484 50.5275 169.203 50.6971ZM168.179 48.059C168.511 47.7908 169.003 47.5695 169.598 47.4198C170.201 47.2778 170.833 47.1954 171.464 47.1954H171.489C172.12 47.1954 172.752 47.2778 173.357 47.4198C173.952 47.5698 174.443 47.791 174.776 48.059C175.119 48.3309 175.276 48.6149 175.276 48.9225C175.279 49.2212 175.107 49.5149 174.776 49.7739C174.453 50.038 173.97 50.2554 173.383 50.4009C172.807 50.5495 172.154 50.627 171.49 50.6257H171.465C170.801 50.6268 170.148 50.5493 169.572 50.4009C168.986 50.2551 168.504 50.0377 168.181 49.7739C167.838 49.502 167.654 49.2184 167.654 48.9225C167.651 48.6149 167.835 48.3313 168.179 48.059Z" fill="#D9D9D9"/>
<path fill-rule="evenodd" clip-rule="evenodd" d="M170.254 49.1118H170.726C171.017 49.1118 171.226 49.1357 171.357 49.1946C171.411 49.2063 171.438 49.2185 171.463 49.2299C171.673 49.3127 171.91 49.4786 172.2 49.7035L172.647 50.0581H173.594L173.016 49.6207C172.726 49.4194 172.463 49.2656 172.279 49.1828C172.157 49.1316 172.014 49.0915 171.858 49.0647C172.279 49.053 172.62 48.9819 172.883 48.8634C173.147 48.7449 173.279 48.6033 173.279 48.4373C173.279 48.3193 173.199 48.2125 173.042 48.118C172.895 48.0153 172.671 47.9397 172.411 47.9049C172.201 47.8696 171.886 47.8457 171.464 47.8457C171.386 47.8457 171.28 47.8339 171.175 47.8339H169.467V50.0577H170.255L170.254 49.1118ZM170.254 48.1415H171.463C171.7 48.1537 171.857 48.1655 171.963 48.1772C172.106 48.1955 172.228 48.2378 172.303 48.2953C172.382 48.3424 172.409 48.402 172.409 48.4731C172.412 48.5179 172.392 48.5625 172.351 48.6035C172.31 48.6444 172.249 48.6806 172.172 48.7092C172.04 48.7685 171.803 48.792 171.462 48.8042H170.253V48.1415H170.254ZM52.1979 48.3903H59.2959L52.1979 43.0669L46.2037 38.584L20.7318 45.4685L24.6221 48.3903H52.1979ZM118.231 48.3903H152.905L131.322 32.208L107.454 14.3457L97.6219 17.0074L82.0074 21.2302L97.6219 32.9295L118.231 48.3903ZM106.114 53.7254C103.668 53.0161 100.802 52.6017 97.7003 52.6017H97.6219C89.0531 52.6253 82.0868 55.7719 82.0868 59.6282C82.0868 63.485 89.0531 66.6312 97.6219 66.6552H97.7003C100.802 66.6552 103.668 66.2412 106.114 65.5315V66.2648H113.29V48.3907H106.114V53.7254ZM106.114 60.3619C105.352 62.1365 101.855 63.4964 97.7003 63.4964H97.6219C92.9164 63.4728 89.1054 61.7457 89.1054 59.6282C89.1054 57.5112 92.9164 55.7841 97.6219 55.7719H97.7003C101.855 55.7719 105.351 57.1208 106.114 58.8949V60.3619ZM139.814 53.7254C137.312 52.9908 134.389 52.6003 131.402 52.6017H131.322C122.753 52.6253 115.788 55.7719 115.788 59.6282C115.788 63.485 122.753 66.6312 131.322 66.6552H131.402C134.504 66.6552 137.395 66.2412 139.814 65.5315V66.2648H146.991V52.9564H139.814V53.7254ZM139.814 60.3619C139.052 62.1365 135.555 63.4964 131.402 63.4964H131.322C126.618 63.4728 122.806 61.7457 122.806 59.6282C122.806 57.5112 126.618 55.7841 131.322 55.7719H131.402C135.555 55.7719 139.051 57.1208 139.814 58.8949V60.3619ZM172.515 58.7529C172.253 58.6932 171.884 58.6344 171.463 58.5634C169.86 58.315 167.257 58.0074 163.629 57.6528C160.449 57.333 158.845 56.9195 158.845 56.3988C158.845 56.032 159.134 55.7361 159.686 55.5235C160.422 55.2394 161.735 55.0974 163.629 55.0974C165.548 55.0974 166.941 55.2869 167.757 55.6534C168.256 55.8782 168.623 56.2799 168.86 56.8481H176.484C176.484 55.1684 174.959 53.962 171.963 53.2287C171.805 53.1823 171.637 53.1428 171.463 53.1106C169.385 52.6727 166.626 52.4479 163.183 52.4479C159.002 52.4479 155.849 52.945 153.747 53.9502C152.065 54.7545 151.249 55.7361 151.249 56.8955C151.249 58.3394 152.826 59.3799 156.033 60.0543C157.243 60.3144 160.186 60.6813 164.866 61.1309C167.995 61.4385 169.57 61.8764 169.57 62.4324C169.57 62.7639 169.256 63.0476 168.573 63.3077C167.704 63.6388 166.39 63.8048 164.629 63.8048C162.289 63.8048 160.633 63.6275 159.661 63.2846C158.687 62.9534 158.188 62.4685 158.188 61.8533H150.197C150.197 63.4859 151.722 64.7041 154.797 65.508C157.243 66.1349 160.45 66.4547 164.42 66.4547C167.074 66.4547 169.439 66.2534 171.464 65.8635C171.885 65.7807 172.254 65.6975 172.648 65.6029C175.776 64.8226 177.354 63.5804 177.354 61.8772C177.353 60.48 175.747 59.4387 172.515 58.7529ZM26.6728 53.7254C24.1601 52.9922 21.2295 52.602 18.2348 52.6017H18.1554C9.61281 52.6253 2.64648 55.7719 2.64648 59.6282C2.64648 63.485 9.61281 66.6312 18.1554 66.6552H18.2348C21.337 66.6552 24.2281 66.2412 26.6728 65.5315V66.2648H33.8493V52.9564H26.6728V53.7254ZM26.6728 60.3619C25.9108 62.1365 22.4137 63.4964 18.2348 63.4964H18.1554C13.477 63.4728 9.6651 61.7457 9.6651 59.6282C9.6651 57.5112 13.477 55.7841 18.1554 55.7719H18.2348C22.4146 55.7719 25.9108 57.1208 26.6728 58.8949V60.3619ZM71.4664 51.5491H79.2741V48.4613H71.4664V51.5491ZM71.4664 66.2643H79.2741V52.6017H71.4664V66.2643ZM60.7153 53.7254C58.2023 52.9922 55.2714 52.6019 52.2764 52.6017H52.1979C43.6282 52.6253 36.6619 55.7719 36.6619 59.6282C36.6619 63.485 43.6273 66.6312 52.1979 66.6552H52.2764C55.2715 66.6551 58.2024 66.2648 60.7153 65.5315V66.2648H67.8918V48.3907H60.7153V53.7254ZM60.7153 60.3619C59.9533 62.1365 56.4562 63.4964 52.2764 63.4964H52.1979C47.4924 63.4728 43.6805 61.7457 43.6805 59.6282C43.6805 57.5112 47.4924 55.7841 52.1979 55.7719H52.2764C56.4562 55.7719 59.9524 57.1208 60.7153 58.8949V60.3619ZM106.086 48.3903L97.6219 42.0265L76.8294 26.459L52.1979 33.1308L51.3566 33.3552L52.1979 33.9822L71.4394 48.3903H106.086Z" fill="#D9D9D9"/>
</g>
<defs>
<clipPath id="clip0_210_324">
<rect width="180" height="81" fill="white"/>
</clipPath>
</defs>
</svg>
