<svg width="36" height="37" viewBox="0 0 36 37" fill="none" xmlns="http://www.w3.org/2000/svg">
<path d="M18.0004 1.94044C9.11706 1.94044 1.90039 9.3633 1.90039 18.5004C1.90039 21.4374 2.68347 24.1783 3.98946 26.5709L1.92637 34.1464C1.85929 34.3931 1.92468 34.6578 2.09808 34.8417C2.27149 35.0255 2.52679 35.1008 2.76855 35.0393L10.448 33.0818C12.7046 34.3209 15.2652 35.0604 18.0004 35.0604C26.8837 35.0604 34.1004 27.6376 34.1004 18.5004C34.1004 9.36329 26.8837 1.94044 18.0004 1.94044ZM18.0004 3.38044C26.1271 3.38044 32.7004 10.1416 32.7004 18.5004C32.7004 26.8593 26.1271 33.6204 18.0004 33.6204C15.395 33.6204 12.9549 32.9218 10.8336 31.7009C10.6784 31.6117 10.4961 31.5866 10.3236 31.6306L3.59844 33.3448L5.40176 26.727C5.4539 26.538 5.42871 26.3353 5.33203 26.1659C4.04287 23.9174 3.30039 21.3013 3.30039 18.5004C3.30039 10.1416 9.87372 3.38044 18.0004 3.38044ZM12.1502 9.86044C11.7015 9.86044 11.0606 10.0321 10.5342 10.6156C10.218 10.966 8.9004 12.2865 8.9004 14.6079C8.9004 17.0282 10.5324 19.1166 10.7297 19.385H10.7311V19.3864C10.7123 19.3611 10.9815 19.762 11.3408 20.2428C11.7001 20.7235 12.2026 21.355 12.8338 22.0386C14.0962 23.4057 15.8712 24.9858 18.0742 25.9522C19.0887 26.3965 19.8891 26.6648 20.4955 26.8606C21.6193 27.2235 22.6428 27.1684 23.4117 27.0518C23.9872 26.9647 24.6202 26.6804 25.2465 26.2728C25.8728 25.8651 26.4866 25.3582 26.7572 24.5881C26.9511 24.036 27.0497 23.5258 27.0854 23.1059C27.1032 22.896 27.1054 22.7107 27.0922 22.5392C27.0789 22.3677 27.0931 22.2363 26.9377 21.9739C26.6118 21.4235 26.2427 21.4091 25.8576 21.2131C25.6437 21.1042 25.0345 20.7982 24.4234 20.4987C23.8131 20.1996 23.2846 19.9346 22.9592 19.8153C22.7536 19.7392 22.5025 19.6297 22.1402 19.6718C21.778 19.714 21.4202 19.9829 21.2119 20.3004C21.0145 20.6015 20.2197 21.5665 19.9773 21.8501C19.9741 21.8481 19.9952 21.8581 19.8994 21.8093C19.5997 21.6568 19.2332 21.5271 18.6908 21.2328C18.1484 20.9385 17.47 20.5039 16.7275 19.8308V19.8293C15.6225 18.8287 14.8485 17.5724 14.6043 17.1504C14.6207 17.1303 14.6023 17.1547 14.6371 17.1195L14.6385 17.1181C14.888 16.8653 15.1092 16.5633 15.2961 16.3419C15.5611 16.0279 15.678 15.7511 15.8047 15.4925C16.0571 14.9771 15.9166 14.4099 15.7705 14.1115V14.1101C15.7806 14.1308 15.6915 13.9286 15.5955 13.6953C15.4992 13.4614 15.3765 13.1581 15.2455 12.8347C14.9834 12.1879 14.6908 11.4624 14.5168 11.0375V11.0361C14.3118 10.5356 14.0345 10.175 13.6719 10.0011C13.3093 9.82713 12.9889 9.87659 12.976 9.87592H12.9746C12.7159 9.86365 12.4319 9.86044 12.1502 9.86044ZM12.1502 11.3004C12.4201 11.3004 12.6861 11.3038 12.909 11.3145C13.1382 11.3262 13.124 11.3272 13.0799 11.3061C13.0351 11.2846 13.0959 11.2776 13.2262 11.5957C13.3966 12.0118 13.6906 12.7399 13.9535 13.3887C14.085 13.7131 14.208 14.0176 14.3062 14.2564C14.4045 14.4952 14.4577 14.6285 14.5195 14.7556V14.757L14.5209 14.7584C14.5815 14.8813 14.5761 14.8026 14.5551 14.8456C14.4074 15.1471 14.3873 15.2212 14.2379 15.3982C14.0104 15.6678 13.7783 15.9685 13.6555 16.0929C13.548 16.2015 13.3541 16.3707 13.233 16.7018C13.1117 17.0335 13.1683 17.4885 13.3629 17.8282C13.6219 18.2805 14.4755 19.7095 15.802 20.9107C16.6373 21.6682 17.4156 22.1695 18.0373 22.5068C18.659 22.8442 19.1654 23.0412 19.2787 23.0989C19.5478 23.2358 19.8419 23.3422 20.1838 23.3C20.5257 23.2577 20.8205 23.0443 21.0082 22.8261L21.0096 22.8246C21.2593 22.5334 22.0015 21.6618 22.3576 21.1245C22.3727 21.13 22.3678 21.1257 22.4861 21.1695V21.1709H22.4875C22.5415 21.1907 23.2184 21.5023 23.8219 21.7981C24.4254 22.0939 25.0379 22.4013 25.2369 22.5026C25.5241 22.6488 25.6599 22.744 25.6949 22.7445C25.6973 22.8078 25.6997 22.8765 25.6908 22.9807C25.6663 23.2699 25.5911 23.6702 25.4406 24.0987C25.3669 24.3085 24.9829 24.7411 24.4986 25.0564C24.0144 25.3716 23.4249 25.5942 23.2066 25.6273C22.5503 25.7268 21.7711 25.7631 20.9152 25.4867C20.3218 25.2951 19.5819 25.0471 18.6238 24.6275C16.6808 23.7751 15.0293 22.3247 13.8496 21.0471C13.2598 20.4084 12.7872 19.8137 12.451 19.3639C12.1154 18.9148 11.9689 18.6812 11.8467 18.5159L11.8453 18.5145C11.6284 18.2195 10.3004 16.3194 10.3004 14.6079C10.3004 12.7966 11.1183 12.0863 11.5609 11.5958C11.7933 11.3382 12.0473 11.3004 12.1502 11.3004Z" fill="#D9D9D9"/>
</svg>
