<svg width="48" height="43" viewBox="0 0 48 43" fill="none" xmlns="http://www.w3.org/2000/svg">
<path d="M38.1009 6.09961H9.90091C8.16974 6.09961 6.76758 7.35261 6.76758 8.89961V34.0996C6.76758 35.6466 8.16974 36.8996 9.90091 36.8996H25.5676V24.2996H20.8676V20.0996H25.5676V17.8442C25.5676 13.5742 27.8956 11.6996 31.8671 11.6996C33.7691 11.6996 34.7749 11.8256 35.2511 11.883V15.8996H32.5424C30.8566 15.8996 30.2676 16.6948 30.2676 18.3048V20.0996H35.2088L34.5383 24.2996H30.2676V36.8996H38.1009C39.8321 36.8996 41.2342 35.6466 41.2342 34.0996V8.89961C41.2342 7.35261 39.8305 6.09961 38.1009 6.09961Z" fill="#D9D9D9"/>
</svg>
