<svg width="37" height="37" viewBox="0 0 37 37" fill="none" xmlns="http://www.w3.org/2000/svg">
<path d="M11.2402 2.31252C6.56447 2.31252 2.75 6.23293 2.75 11.0386V23.658C2.75 28.4546 6.56445 32.375 11.2402 32.375H23.5186C28.1856 32.375 32 28.4546 32 23.6489V11.0386C32 6.23293 28.1856 2.3125 23.5098 2.3125L11.2402 2.31252ZM11.2402 4.62502H23.5098C26.9727 4.62502 29.75 7.47953 29.75 11.0386V23.649C29.75 27.208 26.9727 30.0625 23.5186 30.0625H11.2403C7.77738 30.0625 5.00002 27.2081 5.00002 23.658V11.0386C5.00002 7.47955 7.77735 4.62502 11.2402 4.62502ZM26.375 6.93752C25.751 6.93752 25.25 7.45242 25.25 8.09377C25.25 8.73512 25.751 9.25002 26.375 9.25002C26.999 9.25002 27.5 8.73512 27.5 8.09377C27.5 7.45242 26.999 6.93752 26.375 6.93752ZM17.375 9.25002C13.042 9.25002 9.5 12.8904 9.5 17.3438C9.5 21.7971 13.042 25.4375 17.375 25.4375C21.708 25.4375 25.25 21.7971 25.25 17.3438C25.25 12.8904 21.708 9.25002 17.375 9.25002ZM17.375 11.5625C20.4951 11.5625 23 14.137 23 17.3438C23 20.5506 20.4951 23.125 17.375 23.125C14.2549 23.125 11.75 20.5506 11.75 17.3438C11.75 14.137 14.2549 11.5625 17.375 11.5625Z" fill="#D9D9D9"/>
</svg>
