<svg width="141" height="52" viewBox="0 0 141 52" fill="none" xmlns="http://www.w3.org/2000/svg">
<g clip-path="url(#clip0_210_322)">
<path d="M17.795 17.4921L18.6295 17.6417C12.4421 27.4945 12.8588 37.247 30.8322 37.247C61.2513 31.6848 61.2513 31.6848 81.9356 27.5441C78.1117 27.4945 74.2878 27.4442 70.4986 27.3947C69.9074 24.5263 69.3165 21.6577 68.7603 18.7891L64.3799 27.1699C61.4248 27.2448 58.4697 27.3198 55.515 27.3942C59.791 18.3149 64.0673 9.26041 68.3433 0.205977C71.4025 0.23087 74.4617 0.255762 77.5208 0.305807C75.0178 5.7184 75.0178 5.7184 75.2965 6.01763C77.5913 4.1219 79.9205 2.22617 82.2489 0.33044C91.0434 0.206496 99.839 0.106406 108.635 0.00683594C107.974 1.62797 107.348 3.24936 106.722 4.87075C103.559 4.99548 100.395 5.1202 97.2666 5.24492C95.3198 9.3854 95.3198 9.3854 95.2153 10.3085C97.9962 10.4332 100.778 10.5579 103.594 10.7076L101.09 15.7211C98.0313 15.9208 94.9717 16.1204 91.9476 16.3198C91.0785 18.1904 90.2086 20.0612 89.3749 21.957L98.0313 22.1815C97.7187 22.905 97.4057 23.653 97.092 24.4016C97.6833 24.4016 98.2741 24.4016 98.9001 24.4265C112.911 21.7576 126.955 19.1135 141 16.4697C105.436 27.5443 69.8723 38.6192 34.3078 49.719C-7.83128 59.6569 -8.45323 34.8363 17.795 17.4921ZM19.8112 27.3947L32.8481 0.00683594H42.4777L42.6863 9.95922C44.3201 6.69155 45.9543 3.44902 47.5878 0.206496C50.3687 0.131558 53.1847 0.0566212 56.0003 0.00683594C51.7937 9.13595 47.6222 18.2653 43.4503 27.3947H33.7859C33.6818 24.1768 33.5774 20.9592 33.5076 17.7667C29.6483 25.3242 29.6483 25.3242 28.953 27.3947H19.8112ZM44.9114 27.3947C49.1874 18.3403 53.498 9.28583 57.8087 0.256022H66.9866C62.5368 9.21063 58.1217 18.1655 53.7066 27.1201C50.7518 27.195 47.8318 27.2949 44.9114 27.3947ZM79.1887 24.6257C77.4854 14.2244 77.4854 14.2244 77.4854 11.8049C89.7229 1.57818 89.7229 1.57818 90.557 1.35363L79.1887 24.6257Z" fill="#D9D9D9"/>
</g>
<defs>
<clipPath id="clip0_210_322">
<rect width="141" height="52" fill="white"/>
</clipPath>
</defs>
</svg>
