<svg width="149" height="61" viewBox="0 0 149 61" fill="none" xmlns="http://www.w3.org/2000/svg">
<g clip-path="url(#clip0_210_329)">
<path d="M79.9913 2.75908C79.5057 2.81633 79.0389 4.18295 78.1005 4.89488C77.4142 5.40869 76.5576 5.37654 76.1025 6.01176C75.9298 6.24907 75.9857 6.65415 75.7897 7.0431C75.4068 7.82098 74.0578 7.89052 74.0578 8.73808C74.0531 9.65338 75.1828 9.8282 76.1608 10.4776C76.9242 11.0004 76.9989 11.3608 77.9231 11.6141C78.7122 11.8194 79.8862 11.1485 80.9436 11.3893C81.812 11.5875 82.6429 11.7301 82.8391 12.4117C83.0117 13.0398 82.8274 14.0139 81.7747 13.9015C81.4198 13.8712 79.8815 13.4751 77.9909 13.6285C75.7103 13.8266 73.1076 14.3956 72.8533 16.3388C72.7132 17.4253 74.4708 18.7064 76.1678 18.4459C77.3419 18.2692 76.7864 17.2113 77.426 16.6974C78.2639 16.0391 83.0117 18.9954 87.4257 18.9954C89.2838 18.9954 90.6656 18.6369 92.0383 17.5378C92.1665 17.4539 92.323 17.2737 92.5213 17.2629C92.7082 17.2737 93.0349 17.4146 93.1423 17.4753C96.6973 19.6591 99.3839 24.0394 112.449 24.0912C114.286 24.0982 116.379 24.7692 118.088 25.961C119.612 27.0386 120.504 28.7139 121.37 30.4143C122.677 32.9658 125.021 35.4476 128.573 38.2095C128.767 38.3576 131.692 40.0955 131.925 40.2257C131.963 40.2435 132.177 40.636 132.103 40.8554C132.016 42.5112 131.701 47.3267 136.398 47.5444C137.546 47.589 137.245 46.9717 137.245 46.547C137.243 45.7084 137.042 44.8752 137.621 44.017C138.412 42.836 135.943 42.2917 136.015 39.7385C136.066 37.8348 133.975 38.1595 132.913 36.709C132.301 35.8686 131.757 35.4226 131.797 34.3948C132.035 28.6106 130.186 24.8101 129.264 23.877C128.545 23.1723 127.95 22.8922 128.608 22.5656C132.528 20.587 133.417 18.7456 133.417 18.7456C135.501 15.0006 137.376 11.5802 139.96 10.0745C140.48 9.76391 141.815 9.00216 142.635 8.70235C145.046 7.83341 146.316 7.30717 147.016 6.78606C148.125 5.96002 149 4.23827 147.938 3.19452C146.617 1.90628 144.332 2.92865 143.323 3.38534C136.118 6.65415 135.056 12.4206 132.56 15.7321C130.569 18.378 127.332 20.3211 124.437 20.4799C122.266 20.603 119.927 20.2676 117.598 19.4861C111.933 17.5877 108.833 15.1362 108.102 14.7027C106.58 13.8052 94.7645 4.93945 85.1918 4.57727C85.1918 4.57727 84.0039 2.75921 83.705 2.72886C83.0046 2.66098 82.2882 3.81539 81.7747 3.94935C81.2915 4.0723 80.4792 2.69838 79.9913 2.75908ZM37.8494 55.6733C36.9483 55.6572 36.1828 55.0916 36.1828 54.3922L36.1851 31.5687H26.344V56.7277C26.344 57.9606 27.6511 58.967 29.2547 58.967H46.4556C48.0708 58.967 49.3617 57.9606 49.3617 56.7277V31.5687H39.53L39.5206 54.3922C39.5206 55.0916 38.755 55.6572 37.8494 55.6733ZM70.7991 31.5687H55.9045C54.1422 31.5687 52.7067 32.6642 52.7067 34.0255V58.9668H62.5568V36.0882C62.5638 35.387 63.3061 34.8321 64.2212 34.8321C65.1409 34.8321 65.8784 35.3745 65.8994 36.0686V58.967H75.7101V36.0684C75.7218 35.3744 76.4594 34.832 77.3767 34.832C78.2872 34.832 79.0388 35.3869 79.0458 36.0881V58.967H88.8961V34.0255C88.8961 32.6642 87.4582 31.5687 85.696 31.5687H70.7991ZM13.1743 36.1362C13.1813 35.3744 12.369 34.832 11.5077 34.832H9.83639V48.6899H11.5077C12.3761 48.6899 13.1815 48.1617 13.1743 47.4035V36.1362ZM19.7778 52.0816H9.83639V58.967H0V31.5687H19.841C21.6172 31.5687 23.0036 32.6713 23.0036 34.0363V49.6141C23.0036 50.9809 21.5636 52.0816 19.7778 52.0816ZM122.651 52.8399C120.674 52.8399 119.015 54.146 119.015 55.7286C119.015 57.3165 120.674 58.6118 122.714 58.6118C124.738 58.6118 126.377 57.3165 126.377 55.7286C126.377 54.1424 124.738 52.8399 122.714 52.8399H122.651ZM127.082 55.7197C127.082 57.5805 125.13 59.0936 122.714 59.0936C120.273 59.0936 118.312 57.5914 118.312 55.7197C118.312 53.8837 120.273 52.3493 122.642 52.3493C125.13 52.3493 127.082 53.8374 127.082 55.7197Z" fill="#D9D9D9"/>
<path d="M122.259 55.5052C122.943 55.5052 123.302 55.3196 123.302 54.9486C123.302 54.6185 122.955 54.449 122.289 54.449H122.093V55.5052H122.259ZM124.778 57.6712H123.603L122.093 56.135V57.6712H121.134V53.787H122.142C123.512 53.787 124.241 54.1832 124.241 54.9397C124.241 55.4445 123.811 55.8925 123.211 56.0262L123.141 56.0459L124.778 57.6712ZM105.411 48.6949V36.0789C105.387 35.3812 104.652 34.846 103.735 34.846C102.827 34.846 102.075 35.4026 102.068 36.0985V48.6949H105.411ZM105.411 58.9666V52.0885H102.068V58.9666H92.2363V34.0252C92.2363 32.6639 93.6717 31.5684 95.4341 31.5684H112.044C113.811 31.5684 115.247 32.6639 115.247 34.0252V58.9665L105.411 58.9666Z" fill="#D9D9D9"/>
</g>
<defs>
<clipPath id="clip0_210_329">
<rect width="149" height="61" fill="white"/>
</clipPath>
</defs>
</svg>
